<svg id="svg" version="1.1" xmlns="http://www.w3.org/2000/svg" xmlns:xlink="http://www.w3.org/1999/xlink" width="400" height="400" viewBox="0, 0, 400,400"><g id="svgg"><path id="path0" d="M187.700 0.276 C 188.085 0.376,188.715 0.376,189.100 0.276 C 189.485 0.175,189.170 0.093,188.400 0.093 C 187.630 0.093,187.315 0.175,187.700 0.276 M210.900 0.276 C 211.285 0.376,211.915 0.376,212.300 0.276 C 212.685 0.175,212.370 0.093,211.600 0.093 C 210.830 0.093,210.515 0.175,210.900 0.276 M197.500 14.696 C 198.875 14.774,201.125 14.774,202.500 14.696 C 203.875 14.618,202.750 14.554,200.000 14.554 C 197.250 14.554,196.125 14.618,197.500 14.696 M187.300 15.076 C 187.685 15.176,188.315 15.176,188.700 15.076 C 189.085 14.975,188.770 14.893,188.000 14.893 C 187.230 14.893,186.915 14.975,187.300 15.076 M211.300 15.076 C 211.685 15.176,212.315 15.176,212.700 15.076 C 213.085 14.975,212.770 14.893,212.000 14.893 C 211.230 14.893,210.915 14.975,211.300 15.076 M118.400 16.590 C 117.427 17.137,117.424 17.150,118.300 17.091 C 118.795 17.057,119.200 16.877,119.200 16.691 C 119.200 16.505,119.380 16.464,119.600 16.600 C 119.820 16.736,120.000 16.657,120.000 16.424 C 120.000 15.867,119.615 15.907,118.400 16.590 M280.000 16.424 C 280.000 16.657,280.180 16.736,280.400 16.600 C 280.620 16.464,280.800 16.505,280.800 16.691 C 280.800 16.877,281.205 17.057,281.700 17.091 C 282.576 17.150,282.573 17.137,281.600 16.590 C 280.385 15.907,280.000 15.867,280.000 16.424 M115.000 18.072 C 114.120 18.532,113.340 19.065,113.266 19.257 C 113.192 19.448,113.003 19.526,112.847 19.429 C 112.485 19.205,111.353 19.886,111.629 20.162 C 111.913 20.446,117.200 17.955,117.200 17.537 C 117.200 17.040,116.778 17.143,115.000 18.072 M282.800 17.520 C 282.800 17.799,286.100 19.600,286.611 19.600 C 287.342 19.600,286.506 18.817,284.989 18.080 C 282.981 17.104,282.800 17.058,282.800 17.520 M104.300 23.829 C 102.805 24.640,102.896 24.978,104.400 24.200 C 105.060 23.859,105.600 23.494,105.600 23.390 C 105.600 23.132,105.557 23.147,104.300 23.829 M257.804 23.993 C 257.666 24.217,257.698 24.402,257.876 24.405 C 258.054 24.408,258.650 24.525,259.200 24.665 C 259.783 24.812,260.061 24.769,259.867 24.559 C 259.683 24.362,259.413 24.197,259.267 24.194 C 259.120 24.191,258.787 24.053,258.528 23.887 C 258.268 23.722,257.942 23.770,257.804 23.993 M98.600 26.876 C 95.747 28.487,88.387 33.321,88.546 33.479 C 88.652 33.585,89.830 32.931,91.164 32.025 C 92.498 31.119,95.076 29.483,96.895 28.390 C 99.681 26.713,101.069 25.482,98.600 26.876 M303.155 28.419 C 305.000 29.529,307.307 30.986,308.283 31.657 C 309.258 32.328,310.146 32.787,310.256 32.677 C 310.495 32.438,300.849 26.400,300.230 26.401 C 299.993 26.401,301.310 27.309,303.155 28.419 M126.400 29.800 C 125.850 30.114,125.580 30.372,125.800 30.372 C 126.020 30.372,126.650 30.114,127.200 29.800 C 127.750 29.486,128.020 29.228,127.800 29.228 C 127.580 29.228,126.950 29.486,126.400 29.800 M272.800 29.800 C 273.350 30.114,273.980 30.372,274.200 30.372 C 274.420 30.372,274.150 30.114,273.600 29.800 C 273.050 29.486,272.420 29.228,272.200 29.228 C 271.980 29.228,272.250 29.486,272.800 29.800 M122.200 31.644 C 120.880 32.291,120.250 32.702,120.800 32.558 C 121.954 32.257,125.599 30.429,125.000 30.453 C 124.780 30.462,123.520 30.998,122.200 31.644 M276.000 31.200 C 276.770 31.622,277.580 31.966,277.800 31.966 C 278.020 31.966,277.570 31.622,276.800 31.200 C 276.030 30.778,275.220 30.434,275.000 30.434 C 274.780 30.434,275.230 30.778,276.000 31.200 M85.600 35.200 C 85.057 35.610,84.699 36.032,84.806 36.138 C 84.913 36.244,85.430 35.982,85.957 35.556 C 87.204 34.544,86.887 34.229,85.600 35.200 M112.300 36.427 C 111.475 36.863,110.800 37.308,110.800 37.418 C 110.800 37.527,111.520 37.249,112.400 36.800 C 113.280 36.351,114.000 35.897,114.000 35.792 C 114.000 35.530,113.997 35.531,112.300 36.427 M286.800 36.184 C 286.800 36.294,287.520 36.751,288.400 37.200 C 289.280 37.649,290.000 37.926,290.000 37.816 C 290.000 37.706,289.280 37.249,288.400 36.800 C 287.520 36.351,286.800 36.074,286.800 36.184 M106.192 39.860 C 104.436 40.883,102.940 41.873,102.867 42.060 C 102.793 42.247,102.478 42.400,102.167 42.400 C 101.855 42.400,101.600 42.580,101.600 42.800 C 101.600 43.020,101.330 43.200,101.000 43.200 C 100.670 43.200,100.400 43.391,100.400 43.624 C 100.400 43.857,100.220 43.936,100.000 43.800 C 99.780 43.664,99.600 43.743,99.600 43.976 C 99.600 44.209,99.702 44.400,99.826 44.400 C 100.273 44.400,106.800 40.270,106.800 39.987 C 106.800 39.827,107.344 39.472,108.009 39.196 C 109.011 38.781,109.995 38.000,109.515 38.000 C 109.443 38.000,107.947 38.837,106.192 39.860 M290.543 38.308 C 290.675 38.521,291.327 38.921,291.991 39.196 C 292.656 39.472,293.200 39.827,293.200 39.987 C 293.200 40.270,299.727 44.400,300.174 44.400 C 300.298 44.400,300.400 44.209,300.400 43.976 C 300.400 43.743,300.239 43.652,300.042 43.774 C 299.845 43.896,299.576 43.715,299.445 43.372 C 299.313 43.030,299.024 42.861,298.803 42.998 C 298.581 43.135,298.400 43.057,298.400 42.824 C 298.400 42.591,298.145 42.400,297.833 42.400 C 297.522 42.400,297.207 42.256,297.133 42.079 C 297.060 41.902,295.920 41.115,294.600 40.329 C 291.329 38.382,290.260 37.849,290.543 38.308 M76.318 42.127 C 73.068 44.735,71.698 46.001,72.800 45.378 C 73.847 44.786,79.394 40.314,79.533 39.950 C 79.743 39.399,79.580 39.509,76.318 42.127 M320.400 39.906 C 320.400 40.198,321.344 40.967,326.091 44.535 C 329.099 46.796,327.511 45.191,324.000 42.422 C 322.020 40.860,320.400 39.728,320.400 39.906 M70.562 46.862 L 69.800 47.724 70.900 47.016 C 72.034 46.286,72.249 46.000,71.662 46.000 C 71.476 46.000,70.981 46.388,70.562 46.862 M328.000 46.154 C 328.000 46.239,328.495 46.627,329.100 47.016 L 330.200 47.724 329.438 46.862 C 328.764 46.099,328.000 45.723,328.000 46.154 M304.400 46.958 C 304.400 47.070,305.255 47.742,306.300 48.450 C 307.346 49.160,307.897 49.393,307.527 48.970 C 306.823 48.164,304.400 46.606,304.400 46.958 M67.578 49.465 L 66.200 50.930 67.900 49.598 C 68.835 48.866,69.600 48.206,69.600 48.133 C 69.600 47.655,68.762 48.207,67.578 49.465 M331.213 48.700 C 331.219 48.865,331.714 49.346,332.313 49.768 L 333.400 50.536 332.430 49.468 C 331.411 48.346,331.192 48.207,331.213 48.700 M309.000 50.270 C 310.052 51.289,312.857 53.276,313.018 53.116 C 313.117 53.016,312.434 52.395,311.499 51.734 C 309.555 50.361,308.388 49.678,309.000 50.270 M88.554 51.668 C 86.822 52.972,86.591 53.201,87.020 53.189 C 87.444 53.177,90.342 50.828,89.954 50.811 C 89.819 50.805,89.189 51.191,88.554 51.668 M62.987 53.674 L 60.600 56.147 63.100 54.034 C 65.172 52.283,66.084 51.200,65.487 51.200 C 65.426 51.200,64.301 52.313,62.987 53.674 M334.400 51.560 C 334.400 51.759,335.525 52.872,336.900 54.034 L 339.400 56.147 337.013 53.674 C 334.496 51.066,334.400 50.989,334.400 51.560 M83.216 55.842 C 81.640 57.075,80.439 58.172,80.547 58.280 C 80.705 58.438,84.508 55.517,86.180 53.955 C 87.384 52.830,85.676 53.917,83.216 55.842 M313.820 53.955 C 315.431 55.461,319.292 58.441,319.440 58.293 C 319.649 58.084,314.204 53.600,313.741 53.600 C 313.576 53.600,313.611 53.760,313.820 53.955 M78.401 59.798 C 77.886 60.348,77.565 60.898,77.688 61.021 C 77.812 61.145,78.305 60.696,78.784 60.023 C 79.838 58.542,79.673 58.445,78.401 59.798 M321.184 59.923 C 321.681 60.651,322.193 61.140,322.322 61.011 C 322.452 60.882,322.045 60.286,321.419 59.688 L 320.280 58.600 321.184 59.923 M53.400 63.200 C 52.094 64.520,51.209 65.600,51.434 65.600 C 51.813 65.600,52.762 64.662,55.178 61.900 C 56.849 59.989,55.867 60.707,53.400 63.200 M346.065 63.200 C 347.227 64.520,348.357 65.600,348.576 65.600 C 348.796 65.600,347.906 64.520,346.600 63.200 C 345.294 61.880,344.164 60.800,344.089 60.800 C 344.014 60.800,344.903 61.880,346.065 63.200 M74.600 63.200 C 73.749 64.072,73.142 64.875,73.252 64.985 C 73.362 65.095,74.149 64.472,75.000 63.600 C 75.851 62.728,76.458 61.925,76.348 61.815 C 76.238 61.705,75.451 62.328,74.600 63.200 M324.775 63.344 C 325.751 64.355,326.638 65.095,326.746 64.987 C 327.006 64.727,324.813 62.441,323.800 61.918 C 323.360 61.690,323.799 62.332,324.775 63.344 M350.229 67.681 C 350.857 68.496,351.458 69.075,351.565 68.969 C 351.672 68.862,351.158 68.195,350.423 67.487 L 349.087 66.200 350.229 67.681 M48.040 69.154 C 46.918 70.449,46.001 71.664,46.002 71.854 C 46.004 72.185,46.494 71.646,49.238 68.300 C 51.193 65.915,50.285 66.562,48.040 69.154 M68.800 69.000 C 67.828 69.990,67.123 70.800,67.233 70.800 C 67.343 70.800,68.228 69.990,69.200 69.000 C 70.172 68.010,70.877 67.200,70.767 67.200 C 70.657 67.200,69.772 68.010,68.800 69.000 M331.000 69.200 C 331.859 70.080,332.652 70.800,332.762 70.800 C 332.872 70.800,332.259 70.080,331.400 69.200 C 330.541 68.320,329.748 67.600,329.638 67.600 C 329.528 67.600,330.141 68.320,331.000 69.200 M353.006 70.912 C 353.392 71.524,353.809 71.924,353.932 71.801 C 354.055 71.678,353.739 71.178,353.230 70.689 L 352.304 69.800 353.006 70.912 M43.186 75.018 C 42.040 76.458,41.177 77.711,41.269 77.802 C 41.421 77.955,44.574 74.162,45.320 72.929 C 46.106 71.628,45.095 72.618,43.186 75.018 M63.007 74.793 C 62.152 75.669,61.542 76.475,61.651 76.584 C 61.760 76.694,62.641 75.977,63.608 74.992 C 64.575 74.006,65.186 73.200,64.964 73.200 C 64.743 73.200,63.863 73.917,63.007 74.793 M336.392 74.992 C 337.359 75.977,338.240 76.694,338.349 76.584 C 338.611 76.322,335.555 73.200,335.036 73.200 C 334.814 73.200,335.425 74.006,336.392 74.992 M356.280 74.914 C 357.187 76.372,359.812 79.600,360.092 79.600 C 360.269 79.600,359.494 78.430,358.370 77.000 C 356.527 74.655,355.451 73.581,356.280 74.914 M59.570 78.671 L 58.600 79.742 59.900 78.844 C 61.212 77.937,61.475 77.600,60.870 77.600 C 60.688 77.600,60.103 78.082,59.570 78.671 M338.800 77.773 C 338.800 77.868,339.385 78.350,340.100 78.844 L 341.400 79.742 340.430 78.671 C 339.566 77.716,338.800 77.294,338.800 77.773 M341.424 80.344 C 341.660 80.806,344.843 84.862,349.323 90.409 C 351.475 93.074,349.838 90.573,346.961 86.800 C 344.078 83.020,340.892 79.306,341.424 80.344 M56.728 82.090 C 55.241 83.926,54.656 84.800,54.914 84.800 C 55.239 84.800,58.481 80.747,58.300 80.567 C 58.197 80.464,57.490 81.149,56.728 82.090 M36.016 84.377 C 35.537 85.050,35.317 85.600,35.527 85.600 C 35.982 85.600,37.346 83.612,37.076 83.342 C 36.972 83.239,36.495 83.704,36.016 84.377 M210.300 84.027 C 209.475 84.463,208.800 84.908,208.800 85.018 C 208.800 85.196,211.959 83.719,212.367 83.351 C 212.827 82.934,211.625 83.328,210.300 84.027 M364.281 85.787 C 365.224 87.082,365.811 87.093,364.963 85.800 C 364.603 85.250,364.140 84.800,363.935 84.800 C 363.730 84.800,363.886 85.244,364.281 85.787 M52.337 87.706 C 49.081 92.198,49.258 92.471,52.577 88.076 C 53.626 86.687,54.408 85.475,54.315 85.382 C 54.222 85.288,53.332 86.334,52.337 87.706 M238.659 88.448 C 239.571 89.463,240.831 91.082,241.458 92.046 C 242.085 93.011,242.826 94.040,243.103 94.332 C 243.380 94.625,243.505 95.030,243.380 95.232 C 243.255 95.435,243.354 95.600,243.600 95.600 C 243.846 95.600,243.936 95.780,243.800 96.000 C 243.664 96.220,243.743 96.400,243.976 96.400 C 245.378 96.400,241.924 90.913,238.800 88.178 L 237.000 86.602 238.659 88.448 M366.400 88.622 C 366.400 88.744,367.115 89.897,367.990 91.185 C 368.864 92.473,370.233 94.578,371.033 95.863 C 371.832 97.148,372.366 97.840,372.220 97.400 C 371.677 95.770,366.400 87.811,366.400 88.622 M29.439 94.442 C 27.767 97.136,26.400 99.534,26.401 99.770 C 26.401 100.007,27.309 98.690,28.419 96.845 C 29.529 95.000,30.986 92.693,31.657 91.717 C 32.328 90.742,32.787 89.854,32.677 89.744 C 32.567 89.634,31.110 91.748,29.439 94.442 M202.084 91.100 C 201.127 92.466,200.314 94.000,200.546 94.000 C 200.642 94.000,201.141 93.325,201.654 92.500 C 202.167 91.675,202.734 90.775,202.913 90.500 C 203.566 89.500,202.833 90.030,202.084 91.100 M48.598 92.802 C 48.198 93.244,47.966 93.699,48.082 93.815 C 48.197 93.930,48.590 93.569,48.955 93.012 C 49.752 91.796,49.593 91.702,48.598 92.802 M351.006 92.912 C 351.392 93.524,351.809 93.924,351.932 93.801 C 352.055 93.678,351.739 93.178,351.230 92.689 L 350.304 91.800 351.006 92.912 M199.553 94.900 C 199.527 95.175,199.527 95.535,199.553 95.700 C 199.579 95.865,199.420 96.000,199.200 96.000 C 198.980 96.000,198.800 96.180,198.800 96.400 C 198.800 97.259,199.543 96.738,199.940 95.600 C 200.194 94.871,200.209 94.400,199.979 94.400 C 199.771 94.400,199.579 94.625,199.553 94.900 M43.000 101.200 C 43.136 101.420,43.057 101.600,42.824 101.600 C 42.591 101.600,42.400 101.870,42.400 102.200 C 42.400 102.530,42.220 102.800,42.000 102.800 C 41.780 102.800,41.600 103.055,41.600 103.367 C 41.600 103.678,41.454 103.993,41.276 104.067 C 41.098 104.140,40.364 105.280,39.645 106.600 C 38.926 107.920,38.613 108.640,38.950 108.200 C 39.287 107.760,39.803 107.130,40.096 106.800 C 41.769 104.915,43.882 100.800,43.176 100.800 C 42.943 100.800,42.864 100.980,43.000 101.200 M356.400 101.040 C 356.400 101.375,359.256 106.071,359.904 106.800 C 360.197 107.130,360.713 107.760,361.050 108.200 C 361.387 108.640,361.074 107.920,360.355 106.600 C 359.636 105.280,358.902 104.140,358.724 104.067 C 358.546 103.993,358.400 103.678,358.400 103.367 C 358.400 103.055,358.209 102.800,357.976 102.800 C 357.743 102.800,357.665 102.619,357.802 102.397 C 357.939 102.176,357.770 101.887,357.428 101.755 C 357.085 101.624,356.904 101.355,357.026 101.158 C 357.148 100.961,357.057 100.800,356.824 100.800 C 356.591 100.800,356.400 100.908,356.400 101.040 M23.800 104.400 C 23.459 105.060,23.269 105.600,23.379 105.600 C 23.489 105.600,23.859 105.060,24.200 104.400 C 24.541 103.740,24.731 103.200,24.621 103.200 C 24.511 103.200,24.141 103.740,23.800 104.400 M197.200 105.400 C 197.200 106.610,197.380 107.600,197.600 107.600 C 197.820 107.600,198.000 106.610,198.000 105.400 C 198.000 104.190,197.820 103.200,197.600 103.200 C 197.380 103.200,197.200 104.190,197.200 105.400 M376.400 105.600 C 376.849 106.480,377.306 107.200,377.416 107.200 C 377.526 107.200,377.249 106.480,376.800 105.600 C 376.351 104.720,375.894 104.000,375.784 104.000 C 375.674 104.000,375.951 104.720,376.400 105.600 M37.200 110.800 C 36.751 111.680,36.474 112.400,36.584 112.400 C 36.694 112.400,37.151 111.680,37.600 110.800 C 38.049 109.920,38.326 109.200,38.216 109.200 C 38.106 109.200,37.649 109.920,37.200 110.800 M197.600 109.800 C 197.600 110.130,197.780 110.400,198.000 110.400 C 198.220 110.400,198.400 110.130,198.400 109.800 C 198.400 109.470,198.220 109.200,198.000 109.200 C 197.780 109.200,197.600 109.470,197.600 109.800 M362.600 111.200 C 362.941 111.860,363.311 112.400,363.421 112.400 C 363.531 112.400,363.341 111.860,363.000 111.200 C 362.659 110.540,362.289 110.000,362.179 110.000 C 362.069 110.000,362.259 110.540,362.600 111.200 M379.200 110.940 C 379.200 111.770,382.330 117.403,382.627 117.106 C 382.900 116.834,380.847 112.657,380.347 112.466 C 380.153 112.392,380.067 112.212,380.156 112.066 C 380.244 111.920,380.065 111.568,379.758 111.284 C 379.451 111.001,379.200 110.846,379.200 110.940 M19.600 112.000 C 19.600 112.220,19.615 112.515,19.634 112.655 C 19.653 112.796,19.497 113.021,19.288 113.155 C 18.920 113.392,17.200 116.546,17.200 116.984 C 17.200 117.689,17.956 116.985,18.578 115.700 C 20.028 112.705,20.412 111.600,20.005 111.600 C 19.782 111.600,19.600 111.780,19.600 112.000 M243.618 114.766 C 243.373 115.225,243.339 115.600,243.543 115.600 C 243.954 115.600,244.522 114.388,244.242 114.108 C 244.144 114.011,243.864 114.307,243.618 114.766 M16.464 118.619 C 15.894 119.871,15.890 120.000,16.424 120.000 C 16.657 120.000,16.736 119.820,16.600 119.600 C 16.464 119.380,16.505 119.200,16.691 119.200 C 16.877 119.200,17.057 118.840,17.090 118.400 C 17.170 117.340,17.024 117.391,16.464 118.619 M382.909 118.300 C 382.943 118.795,383.123 119.200,383.309 119.200 C 383.495 119.200,383.536 119.380,383.400 119.600 C 383.264 119.820,383.343 120.000,383.576 120.000 C 384.133 120.000,384.093 119.615,383.410 118.400 C 382.863 117.427,382.850 117.424,382.909 118.300 M202.400 119.881 C 202.400 120.090,202.874 120.697,203.454 121.230 C 204.395 122.096,204.462 122.110,204.076 121.367 C 203.560 120.372,202.400 119.344,202.400 119.881 M32.065 121.017 C 31.395 122.488,31.523 122.802,32.247 121.465 C 32.586 120.840,32.788 120.254,32.696 120.163 C 32.605 120.071,32.321 120.456,32.065 121.017 M367.228 120.200 C 367.228 120.420,367.486 121.050,367.800 121.600 C 368.114 122.150,368.372 122.420,368.372 122.200 C 368.372 121.980,368.114 121.350,367.800 120.800 C 367.486 120.250,367.228 119.980,367.228 120.200 M238.600 122.000 C 238.199 122.443,237.962 122.895,238.072 123.005 C 238.182 123.115,238.599 122.843,239.000 122.400 C 239.401 121.957,239.638 121.505,239.528 121.395 C 239.418 121.285,239.001 121.557,238.600 122.000 M30.672 124.219 C 29.732 126.189,29.864 126.524,30.847 124.662 C 31.293 123.816,31.587 123.054,31.501 122.967 C 31.414 122.881,31.041 123.444,30.672 124.219 M205.802 123.602 C 206.202 124.044,206.615 124.318,206.721 124.212 C 206.990 123.943,205.992 122.800,205.489 122.800 C 205.262 122.800,205.403 123.161,205.802 123.602 M368.434 123.000 C 368.434 123.220,368.778 124.030,369.200 124.800 C 369.622 125.570,369.966 126.020,369.966 125.800 C 369.966 125.580,369.622 124.770,369.200 124.000 C 368.778 123.230,368.434 122.780,368.434 123.000 M376.140 143.200 C 376.277 143.750,376.392 144.335,376.395 144.500 C 376.398 144.665,376.592 144.800,376.827 144.800 C 377.315 144.800,376.938 143.223,376.301 142.600 C 376.023 142.328,375.971 142.521,376.140 143.200 M219.920 155.280 C 220.293 155.653,220.507 155.653,220.880 155.280 C 221.253 154.907,221.147 154.800,220.400 154.800 C 219.653 154.800,219.547 154.907,219.920 155.280 M206.400 157.200 C 206.400 157.420,206.659 157.600,206.976 157.600 C 207.293 157.600,207.664 157.420,207.800 157.200 C 207.936 156.980,207.677 156.800,207.224 156.800 C 206.771 156.800,206.400 156.980,206.400 157.200 M202.800 157.600 C 202.800 157.820,203.059 158.000,203.376 158.000 C 203.693 158.000,204.064 157.820,204.200 157.600 C 204.336 157.380,204.077 157.200,203.624 157.200 C 203.171 157.200,202.800 157.380,202.800 157.600 M198.600 158.000 C 198.736 158.220,199.107 158.400,199.424 158.400 C 199.741 158.400,200.000 158.220,200.000 158.000 C 200.000 157.780,199.629 157.600,199.176 157.600 C 198.723 157.600,198.464 157.780,198.600 158.000 M194.000 158.400 C 194.000 158.620,194.349 158.800,194.776 158.800 C 195.203 158.800,195.664 158.620,195.800 158.400 C 195.940 158.173,195.604 158.000,195.024 158.000 C 194.461 158.000,194.000 158.180,194.000 158.400 M190.000 158.800 C 190.000 159.020,190.360 159.200,190.800 159.200 C 191.240 159.200,191.600 159.020,191.600 158.800 C 191.600 158.580,191.240 158.400,190.800 158.400 C 190.360 158.400,190.000 158.580,190.000 158.800 M185.600 159.200 C 185.600 159.420,185.960 159.600,186.400 159.600 C 186.840 159.600,187.200 159.420,187.200 159.200 C 187.200 158.980,186.840 158.800,186.400 158.800 C 185.960 158.800,185.600 158.980,185.600 159.200 M182.400 159.600 C 182.400 159.820,182.771 160.000,183.224 160.000 C 183.677 160.000,183.936 159.820,183.800 159.600 C 183.664 159.380,183.293 159.200,182.976 159.200 C 182.659 159.200,182.400 159.380,182.400 159.600 M179.400 160.000 C 179.264 160.220,179.423 160.400,179.753 160.400 C 180.083 160.400,180.464 160.220,180.600 160.000 C 180.736 159.780,180.577 159.600,180.247 159.600 C 179.917 159.600,179.536 159.780,179.400 160.000 M175.957 173.414 C 176.924 173.967,177.796 174.337,177.896 174.237 C 178.089 174.044,175.050 172.397,174.516 172.405 C 174.342 172.407,174.991 172.862,175.957 173.414 M14.893 186.800 C 14.893 187.570,14.975 187.885,15.076 187.500 C 15.176 187.115,15.176 186.485,15.076 186.100 C 14.975 185.715,14.893 186.030,14.893 186.800 M384.901 187.000 C 384.905 187.880,384.987 188.193,385.083 187.695 C 385.179 187.198,385.175 186.478,385.075 186.095 C 384.975 185.713,384.896 186.120,384.901 187.000 M0.093 188.400 C 0.093 189.170,0.175 189.485,0.276 189.100 C 0.376 188.715,0.376 188.085,0.276 187.700 C 0.175 187.315,0.093 187.630,0.093 188.400 M399.693 188.400 C 399.693 189.170,399.775 189.485,399.876 189.100 C 399.976 188.715,399.976 188.085,399.876 187.700 C 399.775 187.315,399.693 187.630,399.693 188.400 M14.565 200.000 C 14.565 203.850,14.625 205.425,14.698 203.500 C 14.771 201.575,14.771 198.425,14.698 196.500 C 14.625 194.575,14.565 196.150,14.565 200.000 M385.365 200.000 C 385.365 203.850,385.425 205.425,385.498 203.500 C 385.571 201.575,385.571 198.425,385.498 196.500 C 385.425 194.575,385.365 196.150,385.365 200.000 M179.200 196.200 C 179.200 196.530,179.380 196.800,179.600 196.800 C 179.820 196.800,180.000 196.530,180.000 196.200 C 180.000 195.870,179.820 195.600,179.600 195.600 C 179.380 195.600,179.200 195.870,179.200 196.200 M178.800 197.800 C 178.800 198.130,178.980 198.400,179.200 198.400 C 179.420 198.400,179.600 198.130,179.600 197.800 C 179.600 197.470,179.420 197.200,179.200 197.200 C 178.980 197.200,178.800 197.470,178.800 197.800 M0.093 211.600 C 0.093 212.370,0.175 212.685,0.276 212.300 C 0.376 211.915,0.376 211.285,0.276 210.900 C 0.175 210.515,0.093 210.830,0.093 211.600 M399.693 211.600 C 399.693 212.370,399.775 212.685,399.876 212.300 C 399.976 211.915,399.976 211.285,399.876 210.900 C 399.775 210.515,399.693 210.830,399.693 211.600 M14.893 213.200 C 14.893 213.970,14.975 214.285,15.076 213.900 C 15.176 213.515,15.176 212.885,15.076 212.500 C 14.975 212.115,14.893 212.430,14.893 213.200 M384.893 213.200 C 384.893 213.970,384.975 214.285,385.076 213.900 C 385.176 213.515,385.176 212.885,385.076 212.500 C 384.975 212.115,384.893 212.430,384.893 213.200 M166.436 238.836 C 166.166 239.739,166.018 240.552,166.108 240.642 C 166.198 240.732,166.493 240.066,166.764 239.164 C 167.034 238.261,167.182 237.448,167.092 237.358 C 167.002 237.268,166.707 237.934,166.436 238.836 M225.634 269.500 C 224.738 270.545,224.004 271.536,224.003 271.701 C 224.001 271.867,224.675 271.237,225.500 270.301 C 226.325 269.366,227.270 268.381,227.600 268.113 C 227.972 267.810,228.022 267.621,227.731 267.613 C 227.473 267.606,226.529 268.455,225.634 269.500 M200.800 269.800 C 200.800 270.130,200.980 270.400,201.200 270.400 C 201.420 270.400,201.600 270.130,201.600 269.800 C 201.600 269.470,201.420 269.200,201.200 269.200 C 200.980 269.200,200.800 269.470,200.800 269.800 M222.614 273.435 C 222.241 274.004,222.005 274.538,222.089 274.622 C 222.173 274.707,222.558 274.241,222.944 273.588 C 223.806 272.128,223.548 272.009,222.614 273.435 M29.628 273.400 C 29.628 273.620,29.886 274.250,30.200 274.800 C 30.514 275.350,30.772 275.620,30.772 275.400 C 30.772 275.180,30.514 274.550,30.200 274.000 C 29.886 273.450,29.628 273.180,29.628 273.400 M369.665 274.217 C 368.995 275.688,369.123 276.002,369.847 274.665 C 370.186 274.040,370.388 273.454,370.296 273.363 C 370.205 273.271,369.921 273.656,369.665 274.217 M30.836 276.200 C 30.836 276.420,31.270 277.410,31.800 278.400 C 32.330 279.390,32.764 280.020,32.764 279.800 C 32.764 279.580,32.330 278.590,31.800 277.600 C 31.270 276.610,30.836 275.980,30.836 276.200 M368.075 277.819 C 366.870 280.300,367.005 280.647,368.246 278.261 C 368.801 277.194,369.187 276.253,369.103 276.170 C 369.019 276.086,368.557 276.828,368.075 277.819 M219.246 277.871 C 217.976 279.411,217.727 280.000,218.347 280.000 C 218.774 280.000,220.931 276.798,220.676 276.543 C 220.575 276.442,219.931 277.039,219.246 277.871 M16.014 280.300 C 16.022 280.465,16.281 281.050,16.590 281.600 C 17.137 282.573,17.150 282.576,17.091 281.700 C 17.057 281.205,16.877 280.800,16.691 280.800 C 16.505 280.800,16.464 280.620,16.600 280.400 C 16.736 280.180,16.657 280.000,16.424 280.000 C 16.191 280.000,16.006 280.135,16.014 280.300 M383.400 280.400 C 383.536 280.620,383.495 280.800,383.309 280.800 C 383.123 280.800,382.943 281.205,382.909 281.700 C 382.850 282.576,382.863 282.573,383.410 281.600 C 384.093 280.385,384.133 280.000,383.576 280.000 C 383.343 280.000,383.264 280.180,383.400 280.400 M32.800 280.542 C 32.800 280.977,35.986 287.200,36.209 287.200 C 36.388 287.200,33.328 280.840,32.954 280.433 C 32.869 280.342,32.800 280.391,32.800 280.542 M366.465 281.417 C 365.795 282.888,365.923 283.202,366.647 281.865 C 366.986 281.240,367.188 280.654,367.096 280.563 C 367.005 280.471,366.721 280.856,366.465 281.417 M229.746 282.305 C 228.687 283.759,228.315 284.400,228.529 284.400 C 228.834 284.400,230.889 281.556,230.712 281.379 C 230.619 281.286,230.184 281.703,229.746 282.305 M17.200 282.989 C 17.200 283.500,19.001 286.800,19.280 286.800 C 19.742 286.800,19.696 286.619,18.720 284.611 C 17.983 283.094,17.200 282.258,17.200 282.989 M381.879 283.300 C 381.766 283.575,381.384 284.475,381.031 285.300 C 380.121 287.426,380.862 287.168,381.920 284.989 C 382.404 283.993,382.800 283.093,382.800 282.989 C 382.800 282.583,382.074 282.828,381.879 283.300 M364.000 286.400 C 363.334 287.720,362.878 288.800,362.988 288.800 C 363.098 288.800,363.734 287.720,364.400 286.400 C 365.066 285.080,365.522 284.000,365.412 284.000 C 365.302 284.000,364.666 285.080,364.000 286.400 M227.200 285.400 C 226.917 285.741,226.776 286.109,226.886 286.219 C 226.996 286.329,227.317 286.141,227.600 285.800 C 227.883 285.459,228.024 285.091,227.914 284.981 C 227.804 284.871,227.483 285.059,227.200 285.400 M210.696 289.013 C 207.561 292.013,207.542 292.430,210.661 289.765 C 212.404 288.277,214.042 286.352,213.514 286.413 C 213.451 286.421,212.183 287.591,210.696 289.013 M223.831 289.631 C 222.556 291.180,221.599 292.532,221.702 292.636 C 221.806 292.739,222.923 291.546,224.185 289.985 C 225.446 288.423,226.404 287.071,226.313 286.980 C 226.222 286.889,225.105 288.082,223.831 289.631 M154.000 288.576 C 154.000 289.802,154.228 289.901,154.516 288.800 C 154.631 288.361,154.562 287.900,154.362 287.777 C 154.163 287.654,154.000 288.013,154.000 288.576 M38.656 292.000 C 39.488 293.540,40.310 294.800,40.484 294.800 C 41.041 294.800,40.822 294.052,40.049 293.316 C 39.636 292.922,38.912 291.835,38.441 290.900 C 37.969 289.965,37.485 289.200,37.364 289.200 C 37.243 289.200,37.824 290.460,38.656 292.000 M361.200 291.600 C 360.751 292.480,360.197 293.200,359.968 293.200 C 359.740 293.200,359.655 293.365,359.779 293.566 C 359.903 293.767,359.851 293.992,359.663 294.066 C 358.713 294.439,355.677 300.000,356.424 300.000 C 356.657 300.000,356.748 299.839,356.626 299.642 C 356.504 299.445,356.685 299.176,357.028 299.045 C 357.370 298.913,357.539 298.624,357.402 298.403 C 357.265 298.181,357.343 298.000,357.576 298.000 C 357.809 298.000,358.000 297.745,358.000 297.433 C 358.000 297.122,358.144 296.807,358.321 296.733 C 358.861 296.509,362.632 290.000,362.222 290.000 C 362.109 290.000,361.649 290.720,361.200 291.600 M202.305 293.083 C 202.802 293.179,203.522 293.175,203.905 293.075 C 204.287 292.975,203.880 292.896,203.000 292.901 C 202.120 292.905,201.807 292.987,202.305 293.083 M219.970 294.254 C 219.104 295.195,219.090 295.262,219.833 294.876 C 220.828 294.360,221.856 293.200,221.319 293.200 C 221.110 293.200,220.503 293.674,219.970 294.254 M154.028 294.900 C 154.013 295.505,154.180 296.000,154.400 296.000 C 154.869 296.000,154.869 295.693,154.400 294.600 C 154.095 293.891,154.053 293.925,154.028 294.900 M40.800 295.571 C 40.800 295.776,41.070 296.213,41.400 296.543 C 41.730 296.873,42.000 297.336,42.000 297.571 C 42.000 297.807,42.180 298.000,42.400 298.000 C 42.620 298.000,42.800 298.270,42.800 298.600 C 42.800 298.930,42.991 299.200,43.224 299.200 C 43.457 299.200,43.536 299.380,43.400 299.600 C 43.264 299.820,43.343 300.000,43.576 300.000 C 44.212 300.000,44.117 299.713,42.700 297.371 C 41.481 295.357,40.800 294.712,40.800 295.571 M217.178 297.500 L 215.800 299.000 217.300 297.622 C 218.696 296.338,218.984 296.000,218.678 296.000 C 218.612 296.000,217.937 296.675,217.178 297.500 M372.226 302.039 C 371.191 303.820,370.412 305.345,370.495 305.428 C 370.655 305.588,373.598 300.746,374.087 299.520 C 374.671 298.057,374.059 298.884,372.226 302.039 M26.401 300.230 C 26.400 300.849,32.438 310.495,32.677 310.256 C 32.787 310.146,32.328 309.258,31.657 308.283 C 30.986 307.307,29.529 305.000,28.419 303.155 C 27.309 301.310,26.401 299.993,26.401 300.230 M209.367 305.383 C 208.505 306.144,207.990 306.774,208.222 306.783 C 208.453 306.793,209.254 306.170,210.000 305.400 C 211.739 303.606,211.390 303.597,209.367 305.383 M156.400 305.046 C 156.400 305.507,158.147 308.400,158.425 308.400 C 158.578 308.400,158.330 307.590,157.875 306.600 C 157.162 305.051,156.400 304.248,156.400 305.046 M350.635 307.772 C 349.626 309.186,348.800 310.479,348.800 310.644 C 348.800 310.971,351.823 307.037,352.445 305.900 C 353.258 304.414,352.391 305.311,350.635 307.772 M47.611 305.820 C 47.624 306.283,51.200 311.069,51.200 310.623 C 51.200 310.449,50.539 309.383,49.731 308.254 C 47.868 305.650,47.597 305.340,47.611 305.820 M369.362 306.718 C 369.137 307.093,368.544 308.075,368.044 308.900 C 367.544 309.725,367.221 310.400,367.326 310.400 C 367.627 310.400,370.122 306.389,369.936 306.203 C 369.845 306.111,369.586 306.343,369.362 306.718 M158.800 309.186 C 158.800 309.398,159.168 309.769,159.618 310.010 C 160.374 310.414,160.397 310.385,159.922 309.624 C 159.381 308.758,158.800 308.531,158.800 309.186 M202.931 310.365 C 201.792 311.188,200.442 312.168,199.931 312.542 L 199.000 313.223 200.000 312.751 C 201.250 312.160,205.600 309.235,205.600 308.985 C 205.600 308.578,204.906 308.937,202.931 310.365 M51.811 311.600 C 52.482 312.825,56.921 318.412,57.089 318.244 C 57.186 318.148,56.151 316.658,54.791 314.934 C 52.148 311.585,51.257 310.589,51.811 311.600 M344.836 315.430 C 343.676 316.877,342.806 318.139,342.901 318.235 C 343.058 318.392,346.237 314.521,346.954 313.300 C 347.637 312.136,346.805 312.973,344.836 315.430 M179.100 318.689 C 179.815 318.778,180.985 318.778,181.700 318.689 C 182.415 318.601,181.830 318.528,180.400 318.528 C 178.970 318.528,178.385 318.601,179.100 318.689 M57.600 319.130 C 57.600 319.312,58.082 319.897,58.671 320.430 L 59.742 321.400 58.844 320.100 C 57.937 318.788,57.600 318.525,57.600 319.130 M341.719 319.290 C 340.812 320.462,340.756 320.937,341.623 320.111 C 342.136 319.622,342.456 319.123,342.335 319.001 C 342.213 318.880,341.936 319.010,341.719 319.290 M359.592 320.610 C 358.819 321.541,359.371 321.717,360.198 320.802 C 360.597 320.361,360.738 320.000,360.511 320.000 C 360.284 320.000,359.870 320.274,359.592 320.610 M42.383 323.951 C 43.966 325.958,45.348 327.600,45.454 327.600 C 45.917 327.600,40.555 320.696,39.902 320.451 C 39.683 320.369,40.800 321.944,42.383 323.951 M60.000 321.847 C 60.000 322.364,62.327 324.607,62.590 324.343 C 62.699 324.234,62.161 323.537,61.394 322.794 C 60.627 322.051,60.000 321.625,60.000 321.847 M338.200 323.200 C 337.568 323.860,337.230 324.400,337.450 324.400 C 337.670 324.400,338.368 323.860,339.000 323.200 C 339.632 322.540,339.970 322.000,339.750 322.000 C 339.530 322.000,338.832 322.540,338.200 323.200 M357.746 323.105 C 356.687 324.559,356.315 325.200,356.529 325.200 C 356.834 325.200,358.889 322.356,358.712 322.179 C 358.619 322.086,358.184 322.503,357.746 323.105 M64.201 326.400 C 66.212 329.026,74.400 336.991,74.400 336.322 C 74.400 336.249,71.933 333.761,68.917 330.794 C 65.902 327.827,63.779 325.850,64.201 326.400 M330.800 331.000 C 327.836 333.970,325.571 336.400,325.765 336.400 C 326.211 336.400,334.594 328.184,335.662 326.700 C 336.974 324.879,336.419 325.369,330.800 331.000 M355.006 326.688 L 354.304 327.800 355.230 326.911 C 355.739 326.422,356.055 325.922,355.932 325.799 C 355.809 325.676,355.392 326.076,355.006 326.688 M46.015 328.200 C 46.014 328.420,47.108 329.770,48.445 331.200 C 50.599 333.503,50.678 333.555,49.139 331.659 C 48.182 330.482,47.089 329.132,46.709 328.659 C 46.329 328.187,46.017 327.980,46.015 328.200 M353.006 329.088 L 352.304 330.200 353.230 329.311 C 353.739 328.822,354.055 328.322,353.932 328.199 C 353.809 328.076,353.392 328.476,353.006 329.088 M350.629 331.919 L 349.487 333.400 350.823 332.113 C 351.558 331.405,352.072 330.738,351.965 330.631 C 351.858 330.525,351.257 331.104,350.629 331.919 M54.019 337.500 C 55.644 339.205,57.053 340.690,57.151 340.800 C 57.248 340.910,57.178 340.730,56.995 340.400 C 56.350 339.238,51.912 334.400,51.491 334.400 C 51.257 334.400,52.394 335.795,54.019 337.500 M346.665 336.200 C 345.837 337.190,345.222 338.000,345.297 338.000 C 345.372 338.000,346.228 337.190,347.200 336.200 C 348.172 335.210,348.787 334.400,348.568 334.400 C 348.349 334.400,347.492 335.210,346.665 336.200 M75.600 337.452 C 75.600 337.667,76.253 338.463,77.050 339.222 C 77.925 340.054,78.336 340.283,78.087 339.800 C 77.562 338.784,75.600 336.932,75.600 337.452 M322.853 338.600 C 321.124 340.570,321.277 340.910,323.080 339.107 C 323.894 338.293,324.458 337.525,324.333 337.400 C 324.209 337.275,323.543 337.815,322.853 338.600 M79.762 341.542 C 80.181 342.014,80.687 342.400,80.886 342.400 C 81.449 342.400,80.850 341.654,79.878 341.144 C 79.006 340.687,79.005 340.690,79.762 341.542 M318.434 342.448 C 317.295 343.355,316.455 344.188,316.566 344.299 C 316.758 344.491,320.800 341.306,320.800 340.963 C 320.800 340.624,320.447 340.846,318.434 342.448 M81.799 343.198 C 81.934 343.417,82.440 343.803,82.922 344.056 C 83.794 344.513,83.795 344.510,83.038 343.658 C 82.275 342.798,81.336 342.450,81.799 343.198 M62.987 346.335 C 64.301 347.691,65.426 348.800,65.487 348.800 C 66.032 348.800,65.201 347.835,63.100 346.024 L 60.600 343.869 62.987 346.335 M336.016 346.800 C 335.035 347.661,334.327 348.460,334.441 348.575 C 334.556 348.689,335.441 347.977,336.408 346.992 C 338.567 344.792,338.397 344.710,336.016 346.800 M88.600 348.588 C 89.260 349.129,89.980 349.577,90.200 349.584 C 90.420 349.590,90.060 349.153,89.400 348.612 C 88.740 348.071,88.020 347.623,87.800 347.616 C 87.580 347.610,87.940 348.047,88.600 348.588 M310.400 348.836 C 309.630 349.505,309.360 349.865,309.800 349.637 C 310.991 349.021,312.660 347.618,312.200 347.620 C 311.980 347.621,311.170 348.168,310.400 348.836 M68.800 351.555 C 70.230 352.892,71.580 353.986,71.800 353.985 C 72.020 353.983,71.813 353.671,71.341 353.291 C 70.868 352.911,69.518 351.818,68.341 350.861 C 66.445 349.322,66.497 349.401,68.800 351.555 M331.615 350.816 C 330.853 351.467,330.415 352.000,330.640 352.000 C 330.866 352.000,331.568 351.460,332.200 350.800 C 333.655 349.281,333.403 349.288,331.615 350.816 M91.889 350.830 C 92.378 351.339,92.878 351.655,93.001 351.532 C 93.124 351.409,92.724 350.992,92.112 350.606 L 91.000 349.904 91.889 350.830 M307.400 351.023 C 306.654 351.656,306.515 351.891,307.033 351.643 C 307.776 351.287,309.125 349.997,308.749 350.002 C 308.667 350.003,308.060 350.463,307.400 351.023 M328.800 353.200 C 328.250 353.630,327.997 353.986,328.238 353.991 C 328.479 353.996,329.002 353.640,329.400 353.200 C 330.312 352.192,330.088 352.192,328.800 353.200 M324.709 356.482 C 323.229 357.621,322.096 358.630,322.191 358.725 C 322.365 358.899,327.600 354.874,327.600 354.566 C 327.600 354.275,327.450 354.375,324.709 356.482 M74.400 356.140 C 74.400 356.243,75.570 357.246,77.000 358.370 C 78.430 359.494,79.600 360.273,79.600 360.101 C 79.600 359.930,78.655 359.059,77.500 358.166 C 75.168 356.363,74.400 355.861,74.400 356.140 M101.200 357.192 C 101.200 357.408,101.650 357.698,102.200 357.836 C 102.750 357.974,103.200 358.247,103.200 358.443 C 103.200 358.640,103.455 358.800,103.767 358.800 C 104.078 358.800,104.393 358.950,104.467 359.133 C 104.630 359.542,110.000 362.559,110.000 362.243 C 110.000 362.118,109.297 361.657,108.437 361.219 C 107.577 360.780,106.812 360.282,106.737 360.111 C 106.346 359.224,101.200 356.512,101.200 357.192 M296.000 358.205 C 294.790 358.967,293.440 359.873,293.000 360.217 C 292.560 360.562,291.840 361.118,291.400 361.454 C 290.960 361.789,291.680 361.476,293.000 360.758 C 294.320 360.040,295.490 359.351,295.600 359.226 C 295.710 359.102,296.475 358.657,297.300 358.237 C 298.125 357.817,298.800 357.322,298.800 357.137 C 298.800 356.570,298.288 356.765,296.000 358.205 M110.400 362.587 C 110.400 362.697,111.300 363.243,112.400 363.800 C 113.500 364.357,114.400 364.723,114.400 364.613 C 114.400 364.503,113.500 363.957,112.400 363.400 C 111.300 362.843,110.400 362.477,110.400 362.587 M287.900 363.227 C 287.075 363.663,286.400 364.108,286.400 364.218 C 286.400 364.327,287.120 364.049,288.000 363.600 C 288.880 363.151,289.600 362.697,289.600 362.592 C 289.600 362.330,289.597 362.331,287.900 363.227 M84.800 363.951 C 84.800 364.139,85.520 364.770,86.400 365.353 C 87.280 365.935,87.993 366.274,87.985 366.106 C 87.963 365.674,84.800 363.533,84.800 363.951 M88.400 366.561 C 88.400 367.002,99.558 373.776,99.832 373.501 C 99.927 373.407,99.118 372.847,98.036 372.258 C 96.953 371.669,94.427 370.110,92.422 368.793 C 88.922 366.495,88.400 366.205,88.400 366.561 M121.963 368.422 C 123.372 369.074,124.591 369.542,124.671 369.462 C 124.846 369.287,120.250 367.192,119.750 367.218 C 119.557 367.228,120.553 367.770,121.963 368.422 M308.000 368.600 C 306.790 369.360,305.964 369.986,306.165 369.991 C 306.563 370.001,310.400 367.616,310.400 367.358 C 310.400 367.103,310.305 367.152,308.000 368.600 M276.400 368.800 C 275.630 369.222,275.180 369.566,275.400 369.566 C 275.620 369.566,276.430 369.222,277.200 368.800 C 277.970 368.378,278.420 368.034,278.200 368.034 C 277.980 368.034,277.170 368.378,276.400 368.800 M126.000 370.200 C 126.550 370.514,127.180 370.772,127.400 370.772 C 127.620 370.772,127.350 370.514,126.800 370.200 C 126.250 369.886,125.620 369.628,125.400 369.628 C 125.180 369.628,125.450 369.886,126.000 370.200 M302.400 372.013 C 300.970 372.884,299.980 373.598,300.200 373.598 C 300.538 373.598,305.063 371.035,305.567 370.558 C 306.232 369.927,304.564 370.694,302.400 372.013 M104.000 375.784 C 104.000 375.894,104.720 376.351,105.600 376.800 C 106.480 377.249,107.200 377.526,107.200 377.416 C 107.200 377.306,106.480 376.849,105.600 376.400 C 104.720 375.951,104.000 375.674,104.000 375.784 M143.420 376.755 C 144.022 377.317,145.600 377.693,145.600 377.274 C 145.600 377.064,145.195 376.785,144.700 376.652 C 143.395 376.302,142.972 376.336,143.420 376.755 M111.600 379.881 C 111.600 380.178,116.458 382.800,117.008 382.800 C 118.234 382.800,116.352 381.645,111.900 379.667 C 111.735 379.593,111.600 379.690,111.600 379.881 M284.700 381.264 C 283.135 381.954,282.193 382.800,282.989 382.800 C 283.500 382.800,286.800 380.999,286.800 380.720 C 286.800 380.314,286.929 380.281,284.700 381.264 M118.400 383.410 C 119.615 384.093,120.000 384.133,120.000 383.576 C 120.000 383.343,119.820 383.264,119.600 383.400 C 119.380 383.536,119.200 383.495,119.200 383.309 C 119.200 383.123,118.795 382.943,118.300 382.909 C 117.424 382.850,117.427 382.863,118.400 383.410 M280.800 383.309 C 280.800 383.495,280.620 383.536,280.400 383.400 C 280.180 383.264,280.000 383.343,280.000 383.576 C 280.000 384.133,280.385 384.093,281.600 383.410 C 282.573 382.863,282.576 382.850,281.700 382.909 C 281.205 382.943,280.800 383.123,280.800 383.309 M190.905 385.487 C 191.514 385.579,192.414 385.577,192.905 385.482 C 193.397 385.387,192.900 385.311,191.800 385.314 C 190.700 385.317,190.297 385.395,190.905 385.487 M207.305 385.487 C 207.914 385.579,208.814 385.577,209.305 385.482 C 209.797 385.387,209.300 385.311,208.200 385.314 C 207.100 385.317,206.697 385.395,207.305 385.487 M187.700 399.876 C 188.085 399.976,188.715 399.976,189.100 399.876 C 189.485 399.775,189.170 399.693,188.400 399.693 C 187.630 399.693,187.315 399.775,187.700 399.876 M210.900 399.876 C 211.285 399.976,211.915 399.976,212.300 399.876 C 212.685 399.775,212.370 399.693,211.600 399.693 C 210.830 399.693,210.515 399.775,210.900 399.876 " stroke="none" fill="#cecece" fill-rule="evenodd"></path><path id="path1" d="M189.400 0.385 C 181.025 0.861,165.049 2.752,164.018 3.389 C 163.849 3.493,163.011 3.686,162.155 3.818 C 160.165 4.124,159.624 4.228,158.400 4.538 C 157.850 4.678,156.950 4.875,156.400 4.977 C 155.850 5.079,152.970 5.802,150.000 6.585 C 78.593 25.394,24.726 79.617,6.333 151.200 C 4.290 159.150,4.223 159.443,3.813 162.155 C 3.684 163.011,3.493 163.849,3.389 164.018 C 3.052 164.562,1.634 174.812,0.956 181.600 C 0.159 189.581,0.043 209.009,0.748 216.400 C 1.405 223.284,2.746 233.484,3.236 235.320 C 3.459 236.157,3.720 237.417,3.815 238.120 C 4.253 241.354,7.757 254.703,10.013 261.727 C 29.251 321.648,78.019 370.698,137.200 389.653 C 139.510 390.393,141.490 391.089,141.600 391.199 C 141.710 391.310,142.070 391.422,142.400 391.450 C 142.730 391.477,145.755 392.256,149.122 393.180 C 152.489 394.105,155.729 394.944,156.322 395.045 C 156.915 395.146,157.940 395.398,158.600 395.604 C 175.932 401.029,220.167 400.943,242.200 395.441 C 242.640 395.331,244.890 394.775,247.200 394.204 C 249.510 393.634,252.534 392.818,253.920 392.390 C 255.306 391.963,256.566 391.639,256.720 391.670 C 256.874 391.701,257.270 391.612,257.600 391.472 C 257.930 391.331,261.370 390.137,265.244 388.819 C 356.892 357.628,413.469 262.482,397.143 167.000 C 396.692 164.360,396.240 161.660,396.140 161.000 C 396.039 160.340,395.792 159.260,395.591 158.600 C 395.390 157.940,395.134 156.860,395.022 156.200 C 394.146 151.037,389.189 135.228,385.490 125.801 C 364.291 71.777,317.550 27.929,262.200 10.142 C 259.560 9.294,257.340 8.464,257.266 8.298 C 257.192 8.131,256.993 8.081,256.823 8.186 C 256.653 8.291,255.903 8.195,255.157 7.973 C 253.736 7.551,241.585 4.449,240.200 4.155 C 239.760 4.062,238.770 3.887,238.000 3.766 C 237.230 3.646,235.970 3.391,235.200 3.199 C 226.901 1.134,202.546 -0.362,189.400 0.385 M211.400 14.626 C 222.866 15.206,237.808 17.716,250.474 21.191 C 313.139 38.383,363.858 90.101,379.789 153.051 C 381.164 158.486,383.905 171.614,383.912 172.800 C 383.914 173.130,384.030 174.210,384.169 175.200 C 384.309 176.190,384.522 177.900,384.643 179.000 C 384.764 180.100,384.946 181.720,385.046 182.600 C 386.052 191.405,386.050 208.322,385.042 217.800 C 384.972 218.460,384.790 220.350,384.638 222.000 C 384.486 223.650,384.274 225.296,384.167 225.658 C 384.060 226.020,383.902 226.830,383.816 227.458 C 375.333 289.385,333.155 344.631,274.618 370.486 C 269.122 372.914,261.611 375.654,261.182 375.389 C 260.972 375.259,260.800 375.322,260.800 375.530 C 260.800 375.737,260.485 376.001,260.100 376.116 C 259.715 376.232,257.028 377.050,254.128 377.934 C 246.019 380.408,231.607 383.623,226.000 384.209 C 223.004 384.522,220.475 384.809,218.800 385.026 C 214.959 385.525,209.644 385.724,200.000 385.730 C 189.310 385.737,186.210 385.584,178.000 384.645 C 177.010 384.531,175.210 384.338,174.000 384.215 C 170.666 383.876,160.133 381.725,153.400 380.008 C 78.212 360.843,21.889 294.844,14.972 217.800 C 13.703 203.667,13.977 189.550,15.778 176.200 C 17.126 166.212,19.490 154.285,20.052 154.632 C 20.238 154.747,20.293 154.587,20.174 154.276 C 19.415 152.298,26.682 131.551,32.011 120.483 C 59.179 64.060,111.018 25.537,172.000 16.455 C 181.506 15.039,182.562 14.933,190.800 14.573 C 193.990 14.434,196.690 14.228,196.800 14.116 C 196.976 13.938,199.597 14.029,211.400 14.626 M218.200 82.023 C 209.868 83.245,201.812 90.019,199.318 97.900 C 198.953 99.055,198.543 100.000,198.407 100.000 C 198.272 100.000,198.237 100.655,198.330 101.455 C 198.424 102.255,198.343 102.812,198.150 102.692 C 197.958 102.573,197.800 103.718,197.800 105.237 C 197.800 106.755,197.935 107.998,198.100 107.999 C 198.265 108.000,198.400 108.431,198.400 108.958 C 198.400 115.707,206.748 125.347,214.400 127.435 C 215.610 127.765,216.870 128.169,217.200 128.333 C 218.607 129.032,225.744 128.497,229.000 127.449 C 236.717 124.963,242.964 118.340,244.501 111.014 C 244.756 109.796,245.063 108.800,245.183 108.800 C 245.302 108.800,245.288 106.865,245.152 104.500 C 245.016 102.135,244.982 100.065,245.076 99.900 C 245.170 99.735,245.057 99.600,244.824 99.600 C 244.591 99.600,244.400 99.298,244.400 98.929 C 244.400 98.560,243.665 96.741,242.767 94.885 C 238.452 85.970,228.132 80.567,218.200 82.023 M227.000 154.040 C 223.550 155.143,214.775 156.888,213.707 156.684 C 213.208 156.589,212.800 156.685,212.800 156.897 C 212.800 157.110,212.080 157.215,211.200 157.131 C 210.320 157.048,209.600 157.137,209.600 157.330 C 209.600 157.523,208.790 157.616,207.800 157.537 C 206.810 157.459,206.000 157.553,206.000 157.748 C 206.000 157.943,205.100 158.015,204.000 157.910 C 202.834 157.798,202.000 157.880,202.000 158.108 C 202.000 158.337,201.090 158.424,199.800 158.317 C 198.582 158.216,197.600 158.300,197.600 158.506 C 197.600 158.710,196.700 158.815,195.600 158.739 C 194.500 158.662,193.600 158.757,193.600 158.950 C 193.600 159.142,192.610 159.217,191.400 159.117 C 190.182 159.016,189.200 159.100,189.200 159.306 C 189.200 159.510,188.317 159.615,187.238 159.539 C 186.158 159.462,185.371 159.555,185.489 159.744 C 185.606 159.934,184.869 160.022,183.851 159.941 C 182.833 159.860,182.000 159.899,182.000 160.028 C 182.000 160.157,180.258 160.490,178.128 160.768 C 173.782 161.337,169.299 162.369,164.700 163.861 L 161.600 164.866 161.600 167.425 C 161.600 170.428,161.346 170.285,167.200 170.576 C 172.841 170.857,175.816 171.888,178.735 174.572 C 184.926 180.267,183.220 189.681,166.801 240.400 C 161.417 257.030,160.400 260.308,160.400 261.028 C 160.400 261.394,160.211 261.531,159.938 261.362 C 159.665 261.193,159.584 261.251,159.741 261.505 C 159.887 261.741,159.304 264.783,158.445 268.267 C 157.587 271.750,156.651 275.995,156.364 277.700 C 156.078 279.405,155.735 280.800,155.602 280.800 C 155.469 280.800,155.434 281.430,155.524 282.200 C 155.614 282.970,155.528 283.600,155.333 283.600 C 155.138 283.600,155.048 284.320,155.131 285.200 C 155.215 286.080,155.130 286.800,154.942 286.800 C 154.754 286.800,154.600 288.959,154.600 291.599 C 154.600 294.239,154.735 296.399,154.900 296.399 C 155.065 296.400,155.200 296.931,155.200 297.579 C 155.200 306.355,164.528 315.983,174.843 317.854 C 190.668 320.725,205.906 311.538,224.979 287.627 C 236.233 273.518,238.208 268.351,232.924 266.836 C 229.668 265.902,226.638 268.679,219.562 279.081 C 211.017 291.642,206.080 295.185,199.960 293.147 C 197.569 292.352,197.555 292.304,198.178 286.993 C 199.101 279.127,199.705 275.200,199.991 275.200 C 200.140 275.200,200.182 274.660,200.085 274.000 C 199.982 273.297,200.089 272.800,200.342 272.800 C 200.580 272.800,200.672 272.531,200.546 272.202 C 200.257 271.450,202.816 258.400,203.253 258.400 C 203.430 258.400,203.479 258.150,203.362 257.845 C 203.095 257.149,207.566 239.049,208.050 238.866 C 208.245 238.792,208.310 238.577,208.193 238.388 C 207.992 238.064,212.209 222.651,212.731 221.800 C 212.866 221.580,213.031 221.040,213.098 220.600 C 213.204 219.892,214.642 215.143,216.808 208.347 C 217.203 207.108,218.017 204.363,218.617 202.247 C 219.218 200.131,219.875 198.400,220.078 198.400 C 220.281 198.400,220.346 198.236,220.222 198.036 C 220.098 197.836,221.154 193.537,222.568 188.484 C 223.982 183.430,226.062 175.539,227.190 170.948 C 228.318 166.356,229.343 162.330,229.467 162.000 C 229.591 161.670,229.755 160.797,229.831 160.060 C 229.907 159.322,230.154 158.496,230.381 158.223 C 230.608 157.950,230.682 157.616,230.547 157.480 C 230.412 157.345,230.434 156.912,230.597 156.517 C 231.935 153.272,231.132 152.719,227.000 154.040 " stroke="none" fill="#040404" fill-rule="evenodd"></path><path id="path2" d="M192.705 0.283 C 193.202 0.379,193.922 0.375,194.305 0.275 C 194.687 0.175,194.280 0.096,193.400 0.101 C 192.520 0.105,192.207 0.187,192.705 0.283 M205.905 0.283 C 206.402 0.379,207.122 0.375,207.505 0.275 C 207.887 0.175,207.480 0.096,206.600 0.101 C 205.720 0.105,205.407 0.187,205.905 0.283 M246.000 5.600 C 246.550 5.776,247.360 5.920,247.800 5.920 C 248.433 5.920,248.392 5.854,247.600 5.600 C 247.050 5.424,246.240 5.280,245.800 5.280 C 245.167 5.280,245.208 5.346,246.000 5.600 M149.401 6.307 C 148.082 6.652,147.182 6.990,147.401 7.058 C 147.621 7.125,149.060 6.841,150.600 6.426 C 152.140 6.012,153.040 5.674,152.600 5.676 C 152.160 5.678,150.721 5.962,149.401 6.307 M248.833 6.155 C 248.925 6.240,250.440 6.697,252.200 7.170 C 253.960 7.644,255.760 8.137,256.200 8.265 C 256.640 8.394,256.883 8.375,256.740 8.223 C 256.597 8.071,254.888 7.508,252.943 6.973 C 249.537 6.036,248.479 5.825,248.833 6.155 M143.858 7.852 C 142.790 8.180,141.987 8.520,142.075 8.608 C 142.162 8.696,143.306 8.431,144.617 8.020 C 145.928 7.609,146.730 7.269,146.400 7.264 C 146.070 7.260,144.926 7.524,143.858 7.852 M198.300 14.293 C 199.235 14.377,200.765 14.377,201.700 14.293 C 202.635 14.209,201.870 14.140,200.000 14.140 C 198.130 14.140,197.365 14.209,198.300 14.293 M190.900 14.676 C 191.285 14.776,191.915 14.776,192.300 14.676 C 192.685 14.575,192.370 14.493,191.600 14.493 C 190.830 14.493,190.515 14.575,190.900 14.676 M207.700 14.676 C 208.085 14.776,208.715 14.776,209.100 14.676 C 209.485 14.575,209.170 14.493,208.400 14.493 C 207.630 14.493,207.315 14.575,207.700 14.676 M105.100 23.829 C 103.605 24.640,103.696 24.978,105.200 24.200 C 105.860 23.859,106.400 23.494,106.400 23.390 C 106.400 23.132,106.357 23.147,105.100 23.829 M124.200 30.214 C 123.540 30.517,123.281 30.772,123.624 30.782 C 123.966 30.792,124.596 30.536,125.024 30.213 C 125.972 29.496,125.769 29.496,124.200 30.214 M278.000 31.397 C 278.000 31.668,281.249 33.284,281.430 33.103 C 281.514 33.019,280.776 32.559,279.791 32.081 C 278.806 31.602,278.000 31.294,278.000 31.397 M118.800 32.800 C 117.590 33.439,116.741 33.971,116.913 33.981 C 117.338 34.007,121.200 32.036,121.200 31.793 C 121.200 31.526,121.255 31.503,118.800 32.800 M330.000 48.125 C 330.000 48.194,330.585 48.779,331.300 49.425 L 332.600 50.600 331.425 49.300 C 330.330 48.088,330.000 47.816,330.000 48.125 M309.200 49.725 C 309.200 49.824,309.861 50.409,310.668 51.025 C 311.476 51.641,312.011 51.941,311.856 51.691 C 311.540 51.179,309.200 49.447,309.200 49.725 M334.600 52.400 C 335.459 53.280,336.252 54.000,336.362 54.000 C 336.472 54.000,335.859 53.280,335.000 52.400 C 334.141 51.520,333.348 50.800,333.238 50.800 C 333.128 50.800,333.741 51.520,334.600 52.400 M64.175 53.300 L 63.000 54.600 64.300 53.425 C 65.512 52.330,65.784 52.000,65.475 52.000 C 65.406 52.000,64.821 52.585,64.175 53.300 M324.000 61.725 C 324.000 61.794,324.585 62.379,325.300 63.025 L 326.600 64.200 325.425 62.900 C 324.330 61.688,324.000 61.416,324.000 61.725 M52.975 64.500 L 51.800 65.800 53.100 64.625 C 54.312 63.530,54.584 63.200,54.275 63.200 C 54.206 63.200,53.621 63.785,52.975 64.500 M347.400 65.200 C 348.259 66.080,349.052 66.800,349.162 66.800 C 349.272 66.800,348.659 66.080,347.800 65.200 C 346.941 64.320,346.148 63.600,346.038 63.600 C 345.928 63.600,346.541 64.320,347.400 65.200 M331.000 68.400 C 332.528 69.940,333.869 71.200,333.979 71.200 C 334.089 71.200,332.928 69.940,331.400 68.400 C 329.872 66.860,328.531 65.600,328.421 65.600 C 328.311 65.600,329.472 66.860,331.000 68.400 M68.388 68.700 L 65.800 71.400 68.500 68.812 C 69.985 67.388,71.200 66.173,71.200 66.112 C 71.200 65.817,70.793 66.192,68.388 68.700 M349.600 67.725 C 349.600 67.794,350.185 68.379,350.900 69.025 L 352.200 70.200 351.025 68.900 C 349.930 67.688,349.600 67.416,349.600 67.725 M336.000 73.725 C 336.000 73.794,336.585 74.379,337.300 75.025 L 338.600 76.200 337.425 74.900 C 336.330 73.688,336.000 73.416,336.000 73.725 M211.100 84.027 C 210.275 84.463,209.600 84.908,209.600 85.018 C 209.600 85.127,210.320 84.849,211.200 84.400 C 212.080 83.951,212.800 83.497,212.800 83.392 C 212.800 83.130,212.797 83.131,211.100 84.027 M204.581 88.900 L 203.000 90.600 204.700 89.019 C 206.281 87.548,206.584 87.200,206.281 87.200 C 206.216 87.200,205.451 87.965,204.581 88.900 M51.144 88.700 C 49.993 90.089,49.506 90.800,49.704 90.800 C 49.814 90.800,50.386 90.170,50.973 89.400 C 52.063 87.971,52.195 87.432,51.144 88.700 M349.166 89.500 C 349.383 89.885,350.034 90.740,350.612 91.400 C 351.408 92.308,351.348 92.138,350.364 90.700 C 349.080 88.822,348.402 88.144,349.166 89.500 M23.800 105.200 C 23.459 105.860,23.269 106.400,23.379 106.400 C 23.489 106.400,23.859 105.860,24.200 105.200 C 24.541 104.540,24.731 104.000,24.621 104.000 C 24.511 104.000,24.141 104.540,23.800 105.200 M245.293 105.200 C 245.293 105.970,245.375 106.285,245.476 105.900 C 245.576 105.515,245.576 104.885,245.476 104.500 C 245.375 104.115,245.293 104.430,245.293 105.200 M367.200 119.349 C 367.200 119.781,368.789 122.800,369.016 122.800 C 369.126 122.800,368.830 122.035,368.359 121.100 C 367.432 119.261,367.200 118.911,367.200 119.349 M31.478 121.405 C 31.112 122.172,30.895 122.800,30.996 122.800 C 31.270 122.800,32.484 120.351,32.301 120.168 C 32.214 120.081,31.844 120.638,31.478 121.405 M238.175 122.100 L 237.000 123.400 238.300 122.225 C 239.015 121.579,239.600 120.994,239.600 120.925 C 239.600 120.616,239.270 120.888,238.175 122.100 M369.632 124.424 C 369.614 124.766,369.880 125.396,370.222 125.824 C 370.834 126.588,370.838 126.587,370.476 125.800 C 370.274 125.360,370.008 124.730,369.886 124.400 C 369.693 123.882,369.659 123.885,369.632 124.424 M219.320 128.883 C 219.913 129.260,223.144 129.245,224.117 128.861 C 224.511 128.705,223.485 128.578,221.837 128.578 C 220.189 128.578,219.056 128.715,219.320 128.883 M7.827 144.033 C 7.482 145.195,7.216 146.338,7.236 146.573 C 7.257 146.808,7.609 145.928,8.020 144.617 C 8.431 143.306,8.697 142.164,8.611 142.078 C 8.525 141.991,8.172 142.872,7.827 144.033 M391.413 142.644 C 391.950 144.855,392.778 147.027,392.540 145.600 C 392.411 144.830,392.059 143.660,391.757 143.000 C 391.455 142.340,391.301 142.180,391.413 142.644 M6.071 150.498 C 5.592 152.408,5.216 154.203,5.236 154.486 C 5.256 154.768,5.701 153.380,6.226 151.400 C 6.750 149.420,7.126 147.626,7.061 147.413 C 6.995 147.200,6.550 148.588,6.071 150.498 M393.050 148.400 C 393.190 149.170,393.461 150.160,393.654 150.600 C 393.894 151.149,393.924 150.961,393.750 150.000 C 393.610 149.230,393.339 148.240,393.146 147.800 C 392.906 147.251,392.876 147.439,393.050 148.400 M228.800 153.131 C 228.800 153.313,229.340 153.382,230.000 153.285 C 230.660 153.188,231.200 153.040,231.200 152.955 C 231.200 152.870,230.660 152.800,230.000 152.800 C 229.340 152.800,228.800 152.949,228.800 153.131 M161.837 170.460 C 161.953 170.647,163.072 170.786,164.324 170.768 C 166.955 170.732,166.707 170.538,163.713 170.292 C 162.566 170.197,161.722 170.273,161.837 170.460 M167.233 170.547 C 167.325 170.628,168.120 170.804,169.000 170.938 C 170.115 171.107,170.358 171.071,169.800 170.819 C 169.032 170.471,166.890 170.244,167.233 170.547 M170.853 170.986 C 170.955 171.088,172.180 171.527,173.575 171.961 C 174.969 172.395,175.951 172.598,175.755 172.412 C 175.241 171.921,170.371 170.505,170.853 170.986 M385.309 186.800 C 385.309 187.790,385.387 188.195,385.482 187.700 C 385.578 187.205,385.578 186.395,385.482 185.900 C 385.387 185.405,385.309 185.810,385.309 186.800 M0.101 193.400 C 0.105 194.280,0.187 194.593,0.283 194.095 C 0.379 193.598,0.375 192.878,0.275 192.495 C 0.175 192.113,0.096 192.520,0.101 193.400 M385.768 200.200 C 385.768 204.600,385.826 206.455,385.898 204.321 C 385.970 202.188,385.970 198.588,385.899 196.321 C 385.827 194.055,385.768 195.800,385.768 200.200 M399.693 193.600 C 399.693 194.370,399.775 194.685,399.876 194.300 C 399.976 193.915,399.976 193.285,399.876 192.900 C 399.775 192.515,399.693 192.830,399.693 193.600 M14.162 200.200 C 14.162 203.720,14.224 205.106,14.298 203.281 C 14.372 201.456,14.372 198.576,14.297 196.881 C 14.222 195.186,14.161 196.680,14.162 200.200 M399.701 206.600 C 399.705 207.480,399.787 207.793,399.883 207.295 C 399.979 206.798,399.975 206.078,399.875 205.695 C 399.775 205.313,399.696 205.720,399.701 206.600 M0.093 206.800 C 0.093 207.570,0.175 207.885,0.276 207.500 C 0.376 207.115,0.376 206.485,0.276 206.100 C 0.175 205.715,0.093 206.030,0.093 206.800 M385.293 213.600 C 385.293 214.370,385.375 214.685,385.476 214.300 C 385.576 213.915,385.576 213.285,385.476 212.900 C 385.375 212.515,385.293 212.830,385.293 213.600 M213.429 219.029 C 213.281 219.615,213.238 220.172,213.332 220.266 C 213.427 220.360,213.624 219.958,213.771 219.371 C 213.919 218.785,213.962 218.228,213.868 218.134 C 213.773 218.040,213.576 218.442,213.429 219.029 M212.229 223.029 C 212.081 223.615,212.038 224.172,212.132 224.266 C 212.227 224.360,212.424 223.958,212.571 223.371 C 212.719 222.785,212.762 222.228,212.668 222.134 C 212.573 222.040,212.376 222.442,212.229 223.029 M210.812 228.044 C 210.325 229.848,209.840 231.611,209.733 231.962 C 209.567 232.511,209.593 232.517,209.925 232.000 C 210.414 231.239,212.082 225.149,211.862 224.929 C 211.771 224.838,211.299 226.240,210.812 228.044 M171.066 225.900 C 170.642 226.602,168.855 232.904,169.175 232.569 C 169.546 232.180,171.639 225.600,171.391 225.600 C 171.312 225.600,171.166 225.735,171.066 225.900 M168.378 234.300 C 167.566 236.522,167.546 236.607,167.922 236.200 C 168.360 235.725,169.242 233.200,168.969 233.200 C 168.865 233.200,168.599 233.695,168.378 234.300 M165.040 244.640 C 164.653 245.867,164.409 246.942,164.497 247.030 C 164.585 247.118,164.973 246.187,165.360 244.960 C 165.747 243.733,165.991 242.658,165.903 242.570 C 165.815 242.482,165.427 243.413,165.040 244.640 M5.236 245.528 C 5.181 246.327,7.203 254.088,7.648 254.788 C 7.931 255.231,7.960 255.124,7.754 254.400 C 7.598 253.850,6.975 251.510,6.371 249.200 C 5.767 246.890,5.256 245.237,5.236 245.528 M392.833 252.233 C 392.575 253.259,392.439 254.172,392.531 254.264 C 392.622 254.356,392.909 253.592,393.167 252.567 C 393.425 251.541,393.561 250.628,393.469 250.536 C 393.378 250.444,393.091 251.208,392.833 252.233 M390.336 260.662 C 389.319 263.858,388.631 266.322,388.808 266.137 C 389.219 265.706,392.548 255.215,392.340 255.007 C 392.255 254.921,391.353 257.466,390.336 260.662 M8.067 256.820 C 8.301 257.492,8.567 257.967,8.657 257.876 C 8.856 257.678,8.101 255.600,7.831 255.600 C 7.727 255.600,7.833 256.149,8.067 256.820 M229.376 267.030 C 228.949 267.376,228.839 267.537,229.131 267.387 C 229.424 267.237,230.144 266.969,230.731 266.791 C 231.589 266.533,231.637 266.462,230.976 266.434 C 230.524 266.415,229.804 266.683,229.376 267.030 M226.581 269.300 L 225.000 271.000 226.700 269.419 C 227.635 268.549,228.400 267.784,228.400 267.719 C 228.400 267.416,228.052 267.719,226.581 269.300 M364.000 287.200 C 363.551 288.080,363.274 288.800,363.384 288.800 C 363.494 288.800,363.951 288.080,364.400 287.200 C 364.849 286.320,365.126 285.600,365.016 285.600 C 364.906 285.600,364.449 286.320,364.000 287.200 M209.775 304.500 L 208.600 305.800 209.900 304.625 C 210.615 303.979,211.200 303.394,211.200 303.325 C 211.200 303.016,210.870 303.288,209.775 304.500 M369.853 305.300 L 369.133 306.600 369.958 305.600 C 370.689 304.713,371.014 304.000,370.686 304.000 C 370.624 304.000,370.249 304.585,369.853 305.300 M161.583 311.300 C 163.241 313.066,163.600 313.384,163.600 313.083 C 163.600 313.019,162.745 312.164,161.700 311.183 L 159.800 309.400 161.583 311.300 M348.575 311.468 C 347.959 312.276,347.659 312.811,347.909 312.656 C 348.421 312.340,350.153 310.000,349.875 310.000 C 349.776 310.000,349.191 310.661,348.575 311.468 M335.381 327.300 L 333.800 329.000 335.500 327.419 C 337.081 325.948,337.384 325.600,337.081 325.600 C 337.016 325.600,336.251 326.365,335.381 327.300 M65.000 328.000 C 66.083 329.100,67.060 330.000,67.170 330.000 C 67.280 330.000,66.483 329.100,65.400 328.000 C 64.317 326.900,63.340 326.000,63.230 326.000 C 63.120 326.000,63.917 326.900,65.000 328.000 M350.975 330.900 L 349.800 332.200 351.100 331.025 C 351.815 330.379,352.400 329.794,352.400 329.725 C 352.400 329.416,352.070 329.688,350.975 330.900 M48.000 330.125 C 48.000 330.194,48.585 330.779,49.300 331.425 L 50.600 332.600 49.425 331.300 C 48.330 330.088,48.000 329.816,48.000 330.125 M71.583 334.500 C 72.564 335.545,73.419 336.400,73.483 336.400 C 73.784 336.400,73.466 336.041,71.700 334.383 L 69.800 332.600 71.583 334.500 M347.781 334.500 L 346.200 336.200 347.900 334.619 C 349.481 333.148,349.784 332.800,349.481 332.800 C 349.416 332.800,348.651 333.565,347.781 334.500 M52.400 335.000 C 53.146 335.770,53.847 336.400,53.957 336.400 C 54.067 336.400,53.546 335.770,52.800 335.000 C 52.054 334.230,51.353 333.600,51.243 333.600 C 51.133 333.600,51.654 334.230,52.400 335.000 M326.778 335.900 L 325.400 337.400 326.900 336.022 C 327.725 335.263,328.400 334.588,328.400 334.522 C 328.400 334.216,328.062 334.504,326.778 335.900 M340.800 341.800 C 340.166 342.475,340.118 342.667,340.586 342.667 C 340.916 342.667,341.552 342.277,342.000 341.800 C 342.634 341.125,342.682 340.933,342.214 340.933 C 341.884 340.933,341.248 341.323,340.800 341.800 M312.446 347.821 C 311.481 348.579,310.851 349.197,311.046 349.194 C 311.241 349.191,312.120 348.568,313.000 347.809 C 315.064 346.030,314.713 346.037,312.446 347.821 M334.181 348.100 L 332.600 349.800 334.300 348.219 C 335.235 347.349,336.000 346.584,336.000 346.519 C 336.000 346.216,335.652 346.519,334.181 348.100 M87.344 347.909 C 87.660 348.421,90.000 350.153,90.000 349.875 C 90.000 349.776,89.339 349.191,88.532 348.575 C 87.724 347.959,87.189 347.659,87.344 347.909 M67.600 349.725 C 67.600 349.794,68.185 350.379,68.900 351.025 L 70.200 352.200 69.025 350.900 C 67.930 349.688,67.600 349.416,67.600 349.725 M330.778 351.100 L 329.400 352.600 330.900 351.222 C 331.725 350.463,332.400 349.788,332.400 349.722 C 332.400 349.416,332.062 349.704,330.778 351.100 M116.433 366.152 C 116.841 366.524,120.800 368.393,120.800 368.213 C 120.800 367.988,116.980 366.000,116.547 366.000 C 116.393 366.000,116.342 366.068,116.433 366.152 M279.500 367.829 C 277.949 368.670,278.125 368.961,279.700 368.159 C 281.208 367.393,281.475 367.194,280.967 367.216 C 280.765 367.225,280.105 367.501,279.500 367.829 M305.000 370.000 C 304.340 370.437,303.980 370.792,304.200 370.788 C 304.601 370.782,306.776 369.223,306.400 369.212 C 306.290 369.208,305.660 369.563,305.000 370.000 M96.601 371.202 C 96.869 371.636,99.200 372.934,99.200 372.650 C 99.200 372.556,98.559 372.101,97.776 371.639 C 96.993 371.177,96.464 370.980,96.601 371.202 M99.600 372.979 C 99.600 373.089,100.140 373.459,100.800 373.800 C 101.460 374.141,102.000 374.331,102.000 374.221 C 102.000 374.111,101.460 373.741,100.800 373.400 C 100.140 373.059,99.600 372.869,99.600 372.979 M190.500 385.887 C 191.105 385.978,192.095 385.978,192.700 385.887 C 193.305 385.795,192.810 385.720,191.600 385.720 C 190.390 385.720,189.895 385.795,190.500 385.887 M197.900 385.895 C 199.055 385.976,200.945 385.976,202.100 385.895 C 203.255 385.814,202.310 385.748,200.000 385.748 C 197.690 385.748,196.745 385.814,197.900 385.895 M207.300 385.887 C 207.905 385.978,208.895 385.978,209.500 385.887 C 210.105 385.795,209.610 385.720,208.400 385.720 C 207.190 385.720,206.695 385.795,207.300 385.887 M263.128 389.531 C 261.438 390.119,259.927 390.732,259.769 390.892 C 259.370 391.298,265.711 389.178,266.180 388.748 C 266.675 388.295,266.706 388.287,263.128 389.531 M143.000 391.757 C 143.660 392.059,144.830 392.411,145.600 392.540 C 146.810 392.742,146.762 392.695,145.244 392.196 C 142.604 391.327,141.655 391.142,143.000 391.757 M254.000 392.383 C 252.790 392.787,251.952 393.136,252.138 393.159 C 252.626 393.218,256.800 391.976,256.800 391.772 C 256.800 391.501,256.349 391.599,254.000 392.383 M147.800 393.146 C 148.240 393.339,149.230 393.610,150.000 393.750 C 150.961 393.924,151.149 393.894,150.600 393.654 C 150.160 393.461,149.170 393.190,148.400 393.050 C 147.439 392.876,147.251 392.906,147.800 393.146 M192.705 399.883 C 193.202 399.979,193.922 399.975,194.305 399.875 C 194.687 399.775,194.280 399.696,193.400 399.701 C 192.520 399.705,192.207 399.787,192.705 399.883 M205.905 399.883 C 206.402 399.979,207.122 399.975,207.505 399.875 C 207.887 399.775,207.480 399.696,206.600 399.701 C 205.720 399.705,205.407 399.787,205.905 399.883 " stroke="none" fill="#575757" fill-rule="evenodd"></path><path id="path3" d="M57.970 58.288 C 57.436 58.886,57.287 59.158,57.637 58.891 C 57.987 58.625,58.392 58.495,58.537 58.603 C 58.682 58.712,58.712 58.682,58.603 58.537 C 58.495 58.392,58.607 58.032,58.852 57.737 C 59.687 56.731,58.943 57.196,57.970 58.288 M340.974 57.900 C 341.030 58.285,341.239 58.603,341.438 58.606 C 341.637 58.609,342.070 58.774,342.400 58.971 C 342.730 59.168,342.564 58.850,342.030 58.265 C 340.884 57.006,340.840 56.991,340.974 57.900 M70.575 66.900 L 69.400 68.200 70.700 67.025 C 71.912 65.930,72.184 65.600,71.875 65.600 C 71.806 65.600,71.221 66.185,70.575 66.900 M66.378 71.100 L 65.000 72.600 66.500 71.222 C 67.896 69.938,68.184 69.600,67.878 69.600 C 67.812 69.600,67.137 70.275,66.378 71.100 M213.000 301.600 C 212.141 302.480,211.549 303.200,211.685 303.200 C 212.127 303.200,215.412 300.022,214.981 300.011 C 214.751 300.005,213.859 300.720,213.000 301.600 M332.575 330.100 L 331.400 331.400 332.700 330.225 C 333.415 329.579,334.000 328.994,334.000 328.925 C 334.000 328.616,333.670 328.888,332.575 330.100 M68.400 331.400 C 69.146 332.170,69.847 332.800,69.957 332.800 C 70.067 332.800,69.546 332.170,68.800 331.400 C 68.054 330.630,67.353 330.000,67.243 330.000 C 67.133 330.000,67.654 330.630,68.400 331.400 M329.578 333.100 L 328.200 334.600 329.700 333.222 C 331.096 331.938,331.384 331.600,331.078 331.600 C 331.012 331.600,330.337 332.275,329.578 333.100 M341.223 341.520 C 339.366 343.434,338.346 344.550,338.956 344.000 C 339.565 343.450,340.095 343.060,340.132 343.133 C 340.170 343.206,340.973 342.531,341.917 341.633 C 342.861 340.735,343.505 340.000,343.347 340.000 C 343.190 340.000,343.483 339.550,344.000 339.000 C 344.517 338.450,344.863 338.009,344.770 338.020 C 344.676 338.031,343.081 339.606,341.223 341.520 M58.027 341.829 C 58.967 342.830,59.621 343.189,58.883 342.300 C 58.655 342.025,58.498 341.637,58.534 341.438 C 58.570 341.239,58.266 341.027,57.858 340.967 C 57.197 340.870,57.215 340.965,58.027 341.829 M266.900 388.412 C 265.561 388.951,265.811 389.224,267.200 388.740 C 267.860 388.510,268.400 388.249,268.400 388.161 C 268.400 387.924,267.913 388.005,266.900 388.412 " stroke="none" fill="#7c7c7c" fill-rule="evenodd"></path><path id="path4" d="M131.400 11.814 C 130.395 12.298,130.363 12.353,131.200 12.151 C 131.750 12.019,132.371 11.750,132.580 11.555 C 133.098 11.071,132.814 11.133,131.400 11.814 M267.200 11.431 C 267.200 11.701,269.278 12.456,269.476 12.257 C 269.567 12.167,269.092 11.901,268.420 11.667 C 267.749 11.433,267.200 11.327,267.200 11.431 M132.600 27.014 C 131.595 27.498,131.563 27.553,132.400 27.351 C 132.950 27.219,133.571 26.950,133.780 26.755 C 134.298 26.271,134.014 26.333,132.600 27.014 M60.181 56.564 C 58.631 57.970,56.666 59.993,55.814 61.060 C 54.948 62.146,56.232 61.064,58.733 58.600 C 61.189 56.180,63.199 54.155,63.199 54.100 C 63.201 53.859,62.845 54.150,60.181 56.564 M340.000 57.316 C 341.870 59.218,343.570 60.781,343.778 60.787 C 344.295 60.805,341.909 58.360,339.000 55.893 C 336.924 54.132,337.059 54.324,340.000 57.316 M322.400 60.786 C 322.400 60.998,322.805 61.384,323.300 61.644 C 324.195 62.114,324.196 62.112,323.438 61.258 C 322.591 60.305,322.400 60.218,322.400 60.786 M345.200 62.600 C 345.946 63.370,346.647 64.000,346.757 64.000 C 346.867 64.000,346.346 63.370,345.600 62.600 C 344.854 61.830,344.153 61.200,344.043 61.200 C 343.933 61.200,344.454 61.830,345.200 62.600 M326.800 64.728 C 326.800 64.825,328.555 66.618,330.700 68.712 C 332.845 70.807,334.253 72.089,333.829 71.560 C 332.909 70.414,326.800 64.476,326.800 64.728 M65.775 72.100 L 64.600 73.400 65.900 72.225 C 67.112 71.130,67.384 70.800,67.075 70.800 C 67.006 70.800,66.421 71.385,65.775 72.100 M245.709 105.200 C 245.709 106.190,245.787 106.595,245.882 106.100 C 245.978 105.605,245.978 104.795,245.882 104.300 C 245.787 103.805,245.709 104.210,245.709 105.200 M204.400 122.000 C 204.635 122.440,205.030 122.800,205.276 122.800 C 205.522 122.800,205.398 122.440,205.000 122.000 C 204.602 121.560,204.208 121.200,204.124 121.200 C 204.040 121.200,204.165 121.560,204.400 122.000 M11.667 131.580 C 11.433 132.251,11.327 132.800,11.431 132.800 C 11.701 132.800,12.456 130.722,12.257 130.524 C 12.167 130.433,11.901 130.908,11.667 131.580 M387.818 131.300 C 387.968 131.795,388.255 132.376,388.456 132.591 C 388.657 132.806,388.619 132.401,388.372 131.691 C 387.865 130.238,387.397 129.908,387.818 131.300 M11.667 268.420 C 11.901 269.092,12.167 269.567,12.257 269.476 C 12.456 269.278,11.701 267.200,11.431 267.200 C 11.327 267.200,11.433 267.749,11.667 268.420 M386.467 272.380 C 386.233 273.051,386.127 273.600,386.231 273.600 C 386.501 273.600,387.256 271.522,387.057 271.324 C 386.967 271.233,386.701 271.708,386.467 272.380 M154.252 289.300 C 153.936 290.478,153.982 293.614,154.328 294.485 C 154.478 294.862,154.600 293.647,154.600 291.785 C 154.600 288.046,154.596 288.017,154.252 289.300 M201.462 293.300 C 201.564 293.465,202.256 293.600,203.000 293.600 C 203.744 293.600,204.436 293.465,204.538 293.300 C 204.640 293.135,203.948 293.000,203.000 293.000 C 202.052 293.000,201.360 293.135,201.462 293.300 M210.922 303.837 L 209.800 304.873 211.100 304.009 C 212.291 303.218,212.679 302.800,212.222 302.800 C 212.125 302.800,211.540 303.267,210.922 303.837 M63.191 325.588 C 63.657 326.241,64.242 326.902,64.491 327.056 C 64.741 327.211,64.441 326.676,63.825 325.868 C 62.488 324.115,61.984 323.892,63.191 325.588 M336.400 325.600 C 335.930 326.260,335.618 326.800,335.707 326.800 C 335.795 326.800,336.349 326.260,336.937 325.600 C 337.525 324.940,337.837 324.400,337.630 324.400 C 337.424 324.400,336.870 324.940,336.400 325.600 M73.200 335.707 C 73.200 335.795,73.740 336.349,74.400 336.937 C 75.060 337.525,75.600 337.837,75.600 337.630 C 75.600 337.424,75.060 336.870,74.400 336.400 C 73.740 335.930,73.200 335.618,73.200 335.707 M345.968 336.700 C 343.609 339.343,343.074 340.000,343.282 340.000 C 343.403 340.000,344.349 339.010,345.382 337.800 C 347.296 335.560,347.755 334.698,345.968 336.700 M325.144 336.766 C 324.625 337.187,324.304 337.636,324.432 337.764 C 324.559 337.892,325.086 337.548,325.601 336.998 C 326.715 335.813,326.472 335.690,325.144 336.766 M56.366 339.478 C 58.161 341.580,64.002 347.130,63.999 346.730 C 63.998 346.659,61.805 344.440,59.124 341.800 C 56.061 338.784,55.036 337.921,56.366 339.478 M337.600 345.240 L 335.400 347.270 337.700 345.387 C 339.719 343.733,340.268 343.188,339.900 343.204 C 339.845 343.207,338.810 344.123,337.600 345.240 M130.400 387.734 C 130.400 387.837,130.981 388.124,131.691 388.372 C 132.401 388.619,132.806 388.657,132.591 388.456 C 132.135 388.029,130.400 387.458,130.400 387.734 " stroke="none" fill="#848484" fill-rule="evenodd"></path></g></svg>